<svg width="14" height="13" viewBox="0 0 14 13" fill="none" xmlns="http://www.w3.org/2000/svg">
<g id="Combined Shape 2">
<path id="Combined Shape" fill-rule="evenodd" clip-rule="evenodd" d="M3.46447 0.843148C2.87868 0.257362 1.92893 0.257362 1.34315 0.843148C0.757362 1.42893 0.757362 2.37868 1.34315 2.96447L4.87868 6.5L1.34315 10.0355C0.757362 10.6213 0.757362 11.5711 1.34315 12.1569C1.92893 12.7426 2.87868 12.7426 3.46447 12.1569L7 8.62132L10.5355 12.1569C11.1213 12.7426 12.0711 12.7426 12.6569 12.1569C13.2426 11.5711 13.2426 10.6213 12.6569 10.0355L9.12132 6.5L12.6569 2.96447C13.2426 2.37868 13.2426 1.42894 12.6569 0.843149C12.0711 0.257363 11.1213 0.257363 10.5355 0.843149L7 4.37868L3.46447 0.843148Z" fill="#333D4B"/>
</g>
</svg>
