<svg width="42" height="51" viewBox="0 0 42 51" fill="none" xmlns="http://www.w3.org/2000/svg">
<path fill-rule="evenodd" clip-rule="evenodd" d="M6.01884 6.96845L6.01883 6.96844C5.97893 6.94632 5.93857 6.92394 5.89434 6.89445H5.90267C5.90541 6.8899 5.90874 6.88504 5.91228 6.87989L5.91229 6.87987C5.91953 6.86932 5.92763 6.85751 5.93323 6.84445C5.94434 6.84029 5.95615 6.83682 5.96795 6.83334L5.96797 6.83334C5.97977 6.82987 5.99157 6.8264 6.00267 6.82223C6.06797 6.86887 6.09066 6.91802 6.11452 6.96967C6.12618 6.99492 6.13812 7.02078 6.15545 7.04723C8.61934 8.59445 9.99712 7.7639 10.961 5.60557C11.0943 5.29446 11.2221 4.95834 11.3471 4.60001C12.4856 1.25624 15.1639 1.21554 17.7544 1.17617C18.5834 1.16357 19.4034 1.15111 20.161 1.03057C21.9888 0.744455 21.4055 2.44723 20.6138 3.26668C20.3525 3.54064 20.0453 3.7713 19.7273 4.01018C18.9263 4.61175 18.0558 5.26549 17.6721 6.79445C18.4109 6.79445 19.118 6.79908 19.8036 6.80356C21.3091 6.8134 22.71 6.82256 24.111 6.78057C26.7305 6.70279 27.1749 7.65557 25.7305 9.77501C25.4141 10.2422 25.1582 10.7528 24.9028 11.2623L24.9028 11.2623C24.5842 11.898 24.2665 12.532 23.8332 13.0778C22.3193 14.9722 22.3527 16.2667 24.836 17.15C25.461 17.3722 26.2666 17.9278 26.4249 18.4917C27.1787 21.1628 28.9834 23.1701 30.7828 25.1715C32.7764 27.3889 34.7637 29.5991 35.3082 32.6972C35.3336 32.8398 35.3509 32.9718 35.3667 33.0927C35.4534 33.754 35.4966 34.0833 36.5721 33.9917C38.4055 33.8195 40.5749 33.7972 41.086 36.1361C41.5777 38.3667 39.986 39.7861 38.2832 40.9639C38.0513 41.1224 37.8745 41.3548 37.6771 41.6144L37.677 41.6145L37.677 41.6146C37.5907 41.728 37.5004 41.8467 37.3999 41.9667C37.557 42.652 38.1509 42.6702 38.7069 42.6872C39.2619 42.7042 39.7791 42.72 39.786 43.3972C39.7971 44.525 38.5888 45.05 37.7527 45.3083C33.4888 46.6333 28.9971 47.0833 24.6249 46.9945C22.291 46.9429 20.2481 47.6889 18.2162 48.4308C16.7416 48.9692 15.2727 49.5055 13.7027 49.7333C13.4728 49.7677 13.247 49.819 13.0168 49.8714C12.1848 50.0609 11.295 50.2634 9.94156 49.7195C11.5465 49.1366 12.6067 47.9549 13.6747 46.7646C15.2686 44.9882 16.8798 43.1925 20.3443 43.3389C19.7378 43.0869 19.2507 42.8814 18.8416 42.7087L18.8386 42.7075L18.8384 42.7074L18.8383 42.7074L18.8383 42.7074C18.0407 42.3708 17.5396 42.1594 17.0277 41.9722C14.6971 41.1306 14.386 39.4945 16.1249 37.6C17.1055 36.5361 17.7832 35.3945 15.561 34.9333C14.3394 34.6816 14.6309 34.1589 14.9541 33.5794C15.1873 33.1613 15.437 32.7136 15.1471 32.3167C14.7749 31.8056 15.9971 31.6611 16.7027 31.75C18.7916 32.0195 21.7443 32.3806 20.9332 29.3278C20.8673 29.0811 20.8049 28.8031 20.7383 28.5068L20.7383 28.5065L20.7383 28.5064C20.2772 26.454 19.6181 23.5197 16.2443 23.9639C12.5888 24.4445 11.4416 23.5389 13.7277 20.2222C13.2627 20.0142 12.6193 20.2545 12.0026 20.4849C10.8326 20.922 9.75844 21.3233 10.1805 18.5583C10.2055 18.3833 9.86101 17.9639 9.79156 17.9833C9.52581 18.0675 9.25423 18.3309 8.98428 18.5927L8.98427 18.5927C8.39926 19.1601 7.82185 19.7201 7.32767 18.4333C6.97507 17.516 7.5718 17.2735 8.27224 16.9888C8.98439 16.6993 9.80375 16.3662 9.84156 15.2361C9.78643 15.0572 9.37519 15.0532 8.93251 15.0489C8.19316 15.0417 7.36609 15.0336 7.96379 14.2083C9.95335 11.4633 8.43119 10.3096 6.72814 9.0189L6.72809 9.01886L6.72793 9.01873C6.55262 8.88587 6.3754 8.75155 6.1999 8.6139C5.9697 8.43464 6.05352 8.16439 6.14315 7.87539C6.18547 7.73894 6.22909 7.59832 6.24156 7.46112C6.24156 7.45696 6.24018 7.4514 6.23879 7.44585L6.23879 7.44584C6.2374 7.44029 6.23601 7.43473 6.23601 7.43057C6.24434 7.30001 6.23045 7.16668 6.1499 7.04723C6.10391 7.01561 6.06163 6.99217 6.01884 6.96845L6.01884 6.96845ZM1.47767 27.1861C0.916563 27.0945 0.277674 26.5056 0.338785 25.6583C0.461008 24.1028 5.20267 20.9333 7.30823 21.0583C9.24736 21.1651 9.87271 22.4829 10.4605 23.7216C10.6987 24.2236 10.9307 24.7127 11.2416 25.1028C11.1499 26.9361 10.0416 27.9722 8.8499 27.9778C6.50989 28.0069 4.15224 27.6223 1.82259 27.2423L1.47767 27.1861ZM8.19156 1.87779C5.56656 2.57779 4.05267 3.97223 4.23879 6.79168C2.48041 6.96463 2.99047 7.67977 3.46057 8.33888C3.53408 8.44194 3.60661 8.54364 3.66934 8.64168C3.80506 8.33292 4.04127 8.04282 4.28497 7.74352L4.28497 7.74352C4.44031 7.55274 4.59868 7.35824 4.73601 7.15279C4.89016 7.1129 5.04473 7.07218 5.19939 7.03144L5.19958 7.03138C5.4434 6.96715 5.68744 6.90285 5.93045 6.84168C6.16723 6.31966 6.57432 5.87828 6.98722 5.43059C7.82888 4.51801 8.69473 3.57922 8.19156 1.87779ZM3.5749 9.42501C3.99712 9.27779 3.88323 8.98334 3.66656 8.64168C3.55823 8.88057 3.49434 9.13057 3.5749 9.42501Z" fill="#0E8784"/>
</svg>
