<svg width="52" height="50" viewBox="0 0 52 50" fill="none" xmlns="http://www.w3.org/2000/svg">
<path fill-rule="evenodd" clip-rule="evenodd" d="M28.2744 5.09367V0.104896L22.8308 0.0441895L20.79 3.43047L23.2848 5.9261L28.2744 5.09367ZM22.4532 10.9149L15.8004 4.26124L12.474 7.58847L18.1472 12.6413L22.4532 10.9149ZM29.4478 14.8059L26.1264 12.3901L26.7301 9.6733L32.4324 9.25251L39.9168 15.0729L38.2536 20.0625L35.7588 21.7265L33.264 20.0625V17.5677L30.7692 14.2413L29.4478 14.8059ZM49.0644 47.5053H47.4012C46.942 47.5053 46.5696 47.133 46.5696 46.6737C46.5696 46.2144 46.942 45.8421 47.4012 45.8421H49.0644C49.5237 45.8421 49.896 46.2144 49.896 46.6737C49.896 47.133 49.5237 47.5053 49.0644 47.5053ZM49.0644 35.8629H50.7277C51.1869 35.8629 51.5593 35.4906 51.5593 35.0313C51.5593 34.572 51.1869 34.1997 50.7277 34.1997H49.0644C48.6052 34.1997 48.2328 34.572 48.2328 35.0313C48.2328 35.4906 48.6052 35.8629 49.0644 35.8629ZM39.0852 35.8629L44.0748 32.5365V29.2101L39.0852 24.2205L35.7588 27.5469L32.4324 24.2205L29.106 26.7153L32.4324 30.8733L29.9376 35.8629L27.4428 31.7049L21.6216 29.2101L24.948 22.5573L27.4428 19.2309L21.6216 15.9045L18.2952 19.2309L7.48441 8.42007L0.831601 15.9045L2.78586 23.956L0 26.7153L2.4948 34.1997L22.4532 44.1789L24.948 40.0209L29.9376 43.3473L33.264 50.0001L37.422 43.3473H44.0748L44.9064 38.3577L39.0852 35.8629Z" fill="#0E8784"/>
</svg>
